<svg version="1.1" id="Layer_1" xmlns="http://www.w3.org/2000/svg" xmlns:xlink="http://www.w3.org/1999/xlink" x="0px" y="0px"
	 width="100%" viewBox="0 0 200 120" enable-background="new 0 0 200 120" xml:space="preserve">
<path fill="#000000" opacity="1.000000" stroke="none" 
	d="
M126.000000,121.000000 
	C84.000015,121.000000 42.500023,121.000000 1.000028,121.000000 
	C1.000019,81.000023 1.000019,41.000050 1.000009,1.000055 
	C67.666618,1.000036 134.333237,1.000036 200.999908,1.000018 
	C200.999939,40.999943 200.999939,80.999886 200.999969,120.999916 
	C176.166672,121.000000 151.333328,121.000000 126.000000,121.000000 
M89.257019,61.999996 
	C93.131599,62.976944 94.135704,60.199810 94.778610,57.467762 
	C97.687828,45.104870 100.458015,32.709255 103.461380,19.521383 
	C106.770950,32.906258 109.993347,45.479431 112.920975,58.120872 
	C113.602135,61.062122 114.696716,62.419941 117.765312,62.032131 
	C119.240852,61.845654 120.773705,61.868095 122.255531,62.028088 
	C125.135948,62.339077 126.466980,61.452557 127.406754,58.359039 
	C131.690872,44.256809 136.492813,30.312710 140.886169,16.242306 
	C142.088699,12.390964 142.519516,8.298654 143.331543,4.179615 
	C132.373154,3.741284 131.477570,4.138979 130.034180,9.923437 
	C126.898628,22.489174 123.799057,35.063885 120.466026,48.517937 
	C117.169899,34.677845 114.087814,21.720421 110.995438,8.765455 
	C110.369431,6.142908 109.688568,3.503522 106.072876,4.010900 
	C102.676331,4.487524 98.195915,2.150959 96.929161,8.005507 
	C95.129868,16.321175 93.026718,24.572159 90.983780,32.833569 
	C90.032867,36.678974 88.918259,40.483902 87.877853,44.307182 
	C87.410217,44.197224 86.942589,44.087265 86.474953,43.977306 
	C83.658813,33.316807 80.787483,22.670483 78.044136,11.991282 
	C75.882431,3.576262 75.909134,3.600821 67.704437,3.962890 
	C64.235802,4.115959 63.648090,5.060056 64.756302,8.573618 
	C69.143318,22.482567 73.115776,36.522953 77.188019,50.530289 
	C80.519638,61.990093 80.485703,61.999958 89.257019,61.999996 
M11.965311,81.465141 
	C9.518329,80.506844 7.071347,79.548546 4.624365,78.590248 
	C4.241448,79.033966 3.858531,79.477692 3.475613,79.921410 
	C4.353169,81.466057 4.879164,83.442406 6.163121,84.488014 
	C17.915928,94.059120 30.319818,102.496140 44.509594,108.305626 
	C57.854279,113.769127 71.575516,117.793900 85.838036,118.775284 
	C97.177010,119.555496 108.732582,119.070190 120.051826,117.848289 
	C141.158447,115.569862 160.778580,108.734123 178.377136,96.436935 
	C180.844055,94.713150 181.703125,92.845551 180.675369,90.905159 
	C180.148926,89.911270 176.979446,89.554604 175.342178,90.042702 
	C167.911652,92.257820 160.674927,95.129150 153.231766,97.294418 
	C139.727707,101.222847 126.007629,104.065117 111.834969,104.005013 
	C104.986443,103.975975 98.059326,104.659462 91.306068,103.856842 
	C78.887527,102.380913 66.236305,101.206795 54.298943,97.766426 
	C40.057320,93.661964 26.463795,87.308723 11.965311,81.465141 
M43.957401,59.570118 
	C45.535156,58.469662 47.112915,57.369209 48.683109,56.274033 
	C49.939365,57.807354 51.094166,59.639702 52.647697,61.024837 
	C55.866383,63.894638 58.340282,60.885017 60.900070,59.549259 
	C63.323364,58.284714 62.504280,56.430332 61.857655,54.248413 
	C60.589027,49.967686 59.394470,45.542370 59.119301,41.117805 
	C58.675365,33.979561 59.045906,26.793144 58.987122,19.627773 
	C58.927963,12.417195 54.784122,5.193712 47.998280,4.319251 
	C39.761631,3.257830 31.021854,3.343573 22.899248,4.951305 
	C15.205498,6.474154 15.432686,7.621954 16.428686,15.895890 
	C17.689398,15.895890 19.045969,16.149921 20.266527,15.850157 
	C24.622652,14.780309 28.921387,13.479451 33.262970,12.347022 
	C38.141743,11.074474 44.558311,13.514202 46.047035,17.679558 
	C47.303837,21.196005 47.729137,25.009636 48.595325,29.029877 
	C38.256893,27.727617 29.035467,25.580715 20.230429,30.926401 
	C13.083982,35.265125 11.255512,41.791557 12.036966,49.445724 
	C12.682387,55.767479 16.137049,60.252033 22.057051,62.527073 
	C29.526291,65.397476 36.629711,63.998150 43.957401,59.570118 
M173.001953,28.503574 
	C169.467102,27.015860 165.735382,25.855927 162.480972,23.901295 
	C160.868515,22.932848 159.185089,20.456886 159.266647,18.745544 
	C159.350128,16.994007 161.260452,14.322296 162.886810,13.857396 
	C166.473145,12.832235 170.421768,12.440245 174.152191,12.721896 
	C178.345764,13.038514 182.461868,14.381036 186.884125,15.336102 
	C186.995560,10.826513 188.062057,6.588985 183.254913,5.088535 
	C173.922302,2.175570 164.550186,1.198302 155.363907,5.927992 
	C149.619171,8.885738 147.275665,14.351956 147.275772,19.928965 
	C147.275894,25.689524 149.494736,31.496315 155.837204,33.958202 
	C161.340958,36.094528 166.941986,37.979233 172.488144,40.007652 
	C177.083496,41.688343 180.126572,46.916626 177.527557,49.647575 
	C175.403351,51.879620 171.649796,53.861687 168.701645,53.750595 
	C161.551285,53.481159 154.449356,51.926910 147.319229,50.889118 
	C146.268494,58.653908 146.565521,59.738651 152.439529,61.721867 
	C161.432800,64.758224 170.759354,65.510521 179.535095,61.630417 
	C186.804459,58.416348 192.146759,50.698578 189.262543,40.675594 
	C186.947769,32.631489 180.353088,30.880589 173.001953,28.503574 
M188.216797,75.000046 
	C186.386276,75.000031 184.555679,75.010864 182.725250,74.998077 
	C175.567825,74.948082 168.826324,76.466492 162.927292,80.667679 
	C161.856552,81.430229 161.365280,83.006439 160.133057,84.956154 
	C167.112946,84.354103 172.647537,84.069672 178.126755,83.358551 
	C186.197357,82.311096 189.010391,85.220139 186.998184,93.176796 
	C186.089630,96.769318 184.722015,100.243385 183.658081,103.799736 
	C182.891586,106.361870 182.282822,108.971191 181.603699,111.559464 
	C182.089005,111.879341 182.574295,112.199219 183.059586,112.519096 
	C185.365829,110.387878 188.446289,108.662643 189.820251,106.042542 
	C192.862579,100.240829 195.517014,94.136139 197.468674,87.886154 
	C200.180038,79.203224 198.186020,76.564316 188.216797,75.000046 
z"/>
<path fill="#FFFFFF" opacity="1.000000" stroke="none" 
	d="
M88.805130,62.000000 
	C80.485703,61.999958 80.519638,61.990093 77.188019,50.530289 
	C73.115776,36.522953 69.143318,22.482567 64.756302,8.573618 
	C63.648090,5.060056 64.235802,4.115959 67.704437,3.962890 
	C75.909134,3.600821 75.882431,3.576262 78.044136,11.991282 
	C80.787483,22.670483 83.658813,33.316807 86.474953,43.977306 
	C86.942589,44.087265 87.410217,44.197224 87.877853,44.307182 
	C88.918259,40.483902 90.032867,36.678974 90.983780,32.833569 
	C93.026718,24.572159 95.129868,16.321175 96.929161,8.005507 
	C98.195915,2.150959 102.676331,4.487524 106.072876,4.010900 
	C109.688568,3.503522 110.369431,6.142908 110.995438,8.765455 
	C114.087814,21.720421 117.169899,34.677845 120.466026,48.517937 
	C123.799057,35.063885 126.898628,22.489174 130.034180,9.923437 
	C131.477570,4.138979 132.373154,3.741284 143.331543,4.179615 
	C142.519516,8.298654 142.088699,12.390964 140.886169,16.242306 
	C136.492813,30.312710 131.690872,44.256809 127.406754,58.359039 
	C126.466980,61.452557 125.135948,62.339077 122.255531,62.028088 
	C120.773705,61.868095 119.240852,61.845654 117.765312,62.032131 
	C114.696716,62.419941 113.602135,61.062122 112.920975,58.120872 
	C109.993347,45.479431 106.770950,32.906258 103.461380,19.521383 
	C100.458015,32.709255 97.687828,45.104870 94.778610,57.467762 
	C94.135704,60.199810 93.131599,62.976944 88.805130,62.000000 
z"/>
<path fill="#FF9900" opacity="1.000000" stroke="none" 
	d="
M12.277412,81.697403 
	C26.463795,87.308723 40.057320,93.661964 54.298943,97.766426 
	C66.236305,101.206795 78.887527,102.380913 91.306068,103.856842 
	C98.059326,104.659462 104.986443,103.975975 111.834969,104.005013 
	C126.007629,104.065117 139.727707,101.222847 153.231766,97.294418 
	C160.674927,95.129150 167.911652,92.257820 175.342178,90.042702 
	C176.979446,89.554604 180.148926,89.911270 180.675369,90.905159 
	C181.703125,92.845551 180.844055,94.713150 178.377136,96.436935 
	C160.778580,108.734123 141.158447,115.569862 120.051826,117.848289 
	C108.732582,119.070190 97.177010,119.555496 85.838036,118.775284 
	C71.575516,117.793900 57.854279,113.769127 44.509594,108.305626 
	C30.319818,102.496140 17.915928,94.059120 6.163121,84.488014 
	C4.879164,83.442406 4.353169,81.466057 3.475613,79.921410 
	C3.858531,79.477692 4.241448,79.033966 4.624365,78.590248 
	C7.071347,79.548546 9.518329,80.506844 12.277412,81.697403 
z"/>
<path fill="#FFFFFF" opacity="1.000000" stroke="none" 
	d="
M43.670197,59.824215 
	C36.629711,63.998150 29.526291,65.397476 22.057051,62.527073 
	C16.137049,60.252033 12.682387,55.767479 12.036966,49.445724 
	C11.255512,41.791557 13.083982,35.265125 20.230429,30.926401 
	C29.035467,25.580715 38.256893,27.727617 48.595325,29.029877 
	C47.729137,25.009636 47.303837,21.196005 46.047035,17.679558 
	C44.558311,13.514202 38.141743,11.074474 33.262970,12.347022 
	C28.921387,13.479451 24.622652,14.780309 20.266527,15.850157 
	C19.045969,16.149921 17.689398,15.895890 16.428686,15.895890 
	C15.432686,7.621954 15.205498,6.474154 22.899248,4.951305 
	C31.021854,3.343573 39.761631,3.257830 47.998280,4.319251 
	C54.784122,5.193712 58.927963,12.417195 58.987122,19.627773 
	C59.045906,26.793144 58.675365,33.979561 59.119301,41.117805 
	C59.394470,45.542370 60.589027,49.967686 61.857655,54.248413 
	C62.504280,56.430332 63.323364,58.284714 60.900070,59.549259 
	C58.340282,60.885017 55.866383,63.894638 52.647697,61.024837 
	C51.094166,59.639702 49.939365,57.807354 48.683109,56.274033 
	C47.112915,57.369209 45.535156,58.469662 43.670197,59.824215 
M34.810905,36.000076 
	C32.939053,36.432297 30.780029,36.414120 29.253273,37.387581 
	C25.738379,39.628685 23.195351,42.819267 24.169916,47.350391 
	C25.194752,52.115242 28.264797,54.244717 33.302921,54.070381 
	C38.821060,53.879425 43.195942,51.565365 46.027012,47.166893 
	C47.469765,44.925377 47.795147,41.674412 47.690598,38.915165 
	C47.661587,38.149574 44.334396,37.304264 42.434837,36.867935 
	C40.240032,36.363800 37.950680,36.271255 34.810905,36.000076 
z"/>
<path fill="#FFFFFF" opacity="1.000000" stroke="none" 
	d="
M173.337479,28.733007 
	C180.353088,30.880589 186.947769,32.631489 189.262543,40.675594 
	C192.146759,50.698578 186.804459,58.416348 179.535095,61.630417 
	C170.759354,65.510521 161.432800,64.758224 152.439529,61.721867 
	C146.565521,59.738651 146.268494,58.653908 147.319229,50.889118 
	C154.449356,51.926910 161.551285,53.481159 168.701645,53.750595 
	C171.649796,53.861687 175.403351,51.879620 177.527557,49.647575 
	C180.126572,46.916626 177.083496,41.688343 172.488144,40.007652 
	C166.941986,37.979233 161.340958,36.094528 155.837204,33.958202 
	C149.494736,31.496315 147.275894,25.689524 147.275772,19.928965 
	C147.275665,14.351956 149.619171,8.885738 155.363907,5.927992 
	C164.550186,1.198302 173.922302,2.175570 183.254913,5.088535 
	C188.062057,6.588985 186.995560,10.826513 186.884125,15.336102 
	C182.461868,14.381036 178.345764,13.038514 174.152191,12.721896 
	C170.421768,12.440245 166.473145,12.832235 162.886810,13.857396 
	C161.260452,14.322296 159.350128,16.994007 159.266647,18.745544 
	C159.185089,20.456886 160.868515,22.932848 162.480972,23.901295 
	C165.735382,25.855927 169.467102,27.015860 173.337479,28.733007 
z"/>
<path fill="#FF9900" opacity="1.000000" stroke="none" 
	d="
M188.676132,75.000282 
	C198.186020,76.564316 200.180038,79.203224 197.468674,87.886154 
	C195.517014,94.136139 192.862579,100.240829 189.820251,106.042542 
	C188.446289,108.662643 185.365829,110.387878 183.059586,112.519096 
	C182.574295,112.199219 182.089005,111.879341 181.603699,111.559464 
	C182.282822,108.971191 182.891586,106.361870 183.658081,103.799736 
	C184.722015,100.243385 186.089630,96.769318 186.998184,93.176796 
	C189.010391,85.220139 186.197357,82.311096 178.126755,83.358551 
	C172.647537,84.069672 167.112946,84.354103 160.133057,84.956154 
	C161.365280,83.006439 161.856552,81.430229 162.927292,80.667679 
	C168.826324,76.466492 175.567825,74.948082 182.725250,74.998077 
	C184.555679,75.010864 186.386276,75.000031 188.676132,75.000282 
z"/>
<path fill="#000000" opacity="1.000000" stroke="none" 
	d="
M35.256645,36.000038 
	C37.950680,36.271255 40.240032,36.363800 42.434837,36.867935 
	C44.334396,37.304264 47.661587,38.149574 47.690598,38.915165 
	C47.795147,41.674412 47.469765,44.925377 46.027012,47.166893 
	C43.195942,51.565365 38.821060,53.879425 33.302921,54.070381 
	C28.264797,54.244717 25.194752,52.115242 24.169916,47.350391 
	C23.195351,42.819267 25.738379,39.628685 29.253273,37.387581 
	C30.780029,36.414120 32.939053,36.432297 35.256645,36.000038 
z"/>
</svg>